HIERARCHY
ROOT joint_Root
{
	OFFSET 0.0 0.0 0.0
	CHANNELS 6 Xposition Yposition Zposition Zrotation Xrotation Yrotation 
	JOINT Hips
	{
		OFFSET -0.726466 93.3139 -2.00062
		CHANNELS 6 Xposition Yposition Zposition Zrotation Xrotation Yrotation 
		JOINT Spine
		{
			OFFSET 15.7357 0.0 0.0
			CHANNELS 6 Xposition Yposition Zposition Zrotation Xrotation Yrotation 
			JOINT Chest
			{
				OFFSET 8.98455 -0.406207 0.0
				CHANNELS 6 Xposition Yposition Zposition Zrotation Xrotation Yrotation 
				JOINT Neck
				{
					OFFSET 16.3773 0.0 0.0
					CHANNELS 6 Xposition Yposition Zposition Zrotation Xrotation Yrotation 
					JOINT Head
					{
						OFFSET 6.45672 0.0 0.0
						CHANNELS 6 Xposition Yposition Zposition Zrotation Xrotation Yrotation 
						End Site
						{
							OFFSET 0.0 0.0 0.0
						}
					}
				}
				JOINT Shoulder_L
				{
					OFFSET 12.9942 -0.242716 4.98039
					CHANNELS 6 Xposition Yposition Zposition Zrotation Xrotation Yrotation 
					JOINT UpperArm_L
					{
						OFFSET 5.34809 0.0 0.0
						CHANNELS 6 Xposition Yposition Zposition Zrotation Xrotation Yrotation 
						JOINT LowerArm_L
						{
							OFFSET 24.3286 1.87007e-05 0.0
							CHANNELS 6 Xposition Yposition Zposition Zrotation Xrotation Yrotation 
							JOINT Hand_L
							{
								OFFSET 22.2916 0.0 0.0
								CHANNELS 6 Xposition Yposition Zposition Zrotation Xrotation Yrotation 
								End Site
								{
									OFFSET 0.0 0.0 0.0
								}
							}
						}
					}
				}
				JOINT Shoulder_R
				{
					OFFSET 12.9945 -0.242716 -4.98039
					CHANNELS 6 Xposition Yposition Zposition Zrotation Xrotation Yrotation 
					JOINT UpperArm_R
					{
						OFFSET -5.34813 0.0 0.0
						CHANNELS 6 Xposition Yposition Zposition Zrotation Xrotation Yrotation 
						JOINT LowerArm_R
						{
							OFFSET -24.3289 0.000322201 0.0
							CHANNELS 6 Xposition Yposition Zposition Zrotation Xrotation Yrotation 
							JOINT Hand_R
							{
								OFFSET -22.2915 -0.000108084 0.0
								CHANNELS 6 Xposition Yposition Zposition Zrotation Xrotation Yrotation 
								End Site
								{
									OFFSET 0.0 0.0 0.0
								}
							}
						}
					}
				}
			}
		}
		JOINT UpperLeg_L
		{
			OFFSET -2.19248 -6.46944 0.0
			CHANNELS 6 Xposition Yposition Zposition Zrotation Xrotation Yrotation 
			JOINT LowerLeg_L
			{
				OFFSET 39.0811 0.0 -1.23785e-05
				CHANNELS 6 Xposition Yposition Zposition Zrotation Xrotation Yrotation 
				JOINT Foot_L
				{
					OFFSET 40.9854 0.0 -1.26872e-05
					CHANNELS 6 Xposition Yposition Zposition Zrotation Xrotation Yrotation 
					JOINT Toes_L
					{
						OFFSET 11.7543 0.0 0.0
						CHANNELS 6 Xposition Yposition Zposition Zrotation Xrotation Yrotation 
						End Site
						{
							OFFSET 0.0 0.0 0.0
						}
					}
				}
			}
		}
		JOINT UpperLeg_R
		{
			OFFSET -2.19251 6.46944 0.0
			CHANNELS 6 Xposition Yposition Zposition Zrotation Xrotation Yrotation 
			JOINT LowerLeg_R
			{
				OFFSET -39.0811 -0.00228153 -0.0401928
				CHANNELS 6 Xposition Yposition Zposition Zrotation Xrotation Yrotation 
				JOINT Foot_R
				{
					OFFSET -40.9854 0.0 0.0
					CHANNELS 6 Xposition Yposition Zposition Zrotation Xrotation Yrotation 
					JOINT Toes_R
					{
						OFFSET -11.7543 0.0 0.0
						CHANNELS 6 Xposition Yposition Zposition Zrotation Xrotation Yrotation 
						End Site
						{
							OFFSET 0.0 0.0 0.0
						}
					}
				}
			}
		}
	}
}
MOTION
Frames:	4
Frame Time:	0.0333333
0.000000 0.000000 0.000000 0.000000 0.000000 -0.000000 -2.035480 92.998400 -1.736410 89.018400 -2.154490 1.625830 15.735700 0.000005 -0.000001 98.548900 86.368000 -98.720700 8.984550 -0.406207 -0.000000 -0.580962 1.092120 -0.337913 16.377300 -0.000001 -0.000001 1.396880 -3.207930 4.317930 6.456720 -0.000001 -0.000000 6.835270 -2.251110 -3.700900 12.994200 -0.242716 4.980390 -90.336800 1.065240 -72.453400 5.348090 -0.000007 -0.000001 -69.432100 36.693500 -11.477000 24.328600 0.000019 0.000005 3.855420 9.906990 -21.390000 22.291600 -0.000001 0.000005 3.586860 5.482520 -5.845050 12.994500 -0.242716 -4.980390 87.672200 8.111030 -73.927900 -5.348130 -0.000001 -0.000004 -65.091000 36.754700 -13.122400 -24.328900 0.000322 -0.000009 2.816500 7.866600 -19.776800 -22.291500 -0.000108 -0.000004 8.121390 5.283010 0.546687 -2.192480 -6.469440 -0.000000 -175.938000 -9.488110 -3.207640 39.081100 -0.000007 -0.000012 -0.064609 0.211000 17.024800 40.985400 -0.000006 -0.000013 -1.030650 4.301760 -62.168200 11.754300 -0.000000 0.000003 -0.000002 -0.000032 -16.578800 -2.192510 6.469440 -0.000001 -179.907000 12.470000 179.361000 -39.081100 -0.002282 -0.040193 -0.047221 0.200898 14.124300 -40.985400 0.000008 0.000006 1.869590 7.172840 -62.278300 -11.754300 -0.000006 -0.000006 -0.006134 -0.072050 -19.505500
0.000000 0.000000 0.000000 0.000000 0.000000 -0.000000 -2.054720 93.002300 -1.762140 89.025600 -1.975310 1.610360 15.735700 0.000005 -0.000001 97.951700 86.366000 -98.171100 8.984550 -0.406207 -0.000000 -0.565838 1.021180 -0.433477 16.377300 -0.000001 -0.000001 1.358690 -3.238130 4.376180 6.456720 -0.000001 -0.000000 6.783580 -2.255050 -3.593100 12.994200 -0.242716 4.980390 -90.315600 0.993409 -72.373600 5.348090 -0.000007 -0.000001 -69.413400 36.522300 -11.538100 24.328600 0.000019 0.000005 3.845960 9.907550 -21.341000 22.291600 -0.000001 0.000005 3.619860 5.480850 -5.781000 12.994500 -0.242716 -4.980390 87.638300 8.080460 -73.647600 -5.348130 -0.000001 -0.000004 -64.367900 36.515000 -13.084400 -24.328900 0.000322 -0.000009 3.414100 7.986790 -23.245100 -22.291500 -0.000108 -0.000004 5.289450 5.248270 1.482780 -2.192480 -6.469440 -0.000000 -175.942000 -9.350840 -3.249530 39.081100 -0.000007 -0.000012 -0.064651 0.211507 16.996600 40.985400 -0.000006 -0.000013 -1.033490 4.359960 -62.124400 11.754300 -0.000000 0.000003 -0.000004 -0.000052 -16.579500 -2.192510 6.469440 -0.000001 -179.890000 12.550600 179.359000 -39.081100 -0.002282 -0.040193 -0.047409 0.202189 14.087900 -40.985400 0.000008 0.000006 1.868090 7.068180 -62.258700 -11.754300 -0.000006 -0.000006 -0.005923 -0.070138 -19.427600
0.000000 0.000000 0.000000 0.000000 0.000000 -0.000000 -2.058390 93.007600 -1.795170 89.059100 -1.843320 1.575900 15.735700 0.000005 -0.000001 97.019900 86.371600 -97.311600 8.984550 -0.406207 -0.000000 -0.561245 0.907879 -0.578790 16.377300 -0.000001 -0.000001 1.339940 -3.307280 4.461690 6.456720 -0.000001 -0.000000 6.774470 -2.168480 -3.325300 12.994200 -0.242716 4.980390 -90.288800 0.907373 -72.344800 5.348090 -0.000007 -0.000001 -69.561900 36.022300 -11.398200 24.328600 0.000019 0.000005 3.904830 10.056900 -21.349200 22.291600 -0.000001 0.000005 3.685410 5.483010 -5.863810 12.994500 -0.242716 -4.980390 87.565400 8.074580 -73.159200 -5.348130 -0.000001 -0.000004 -62.659900 35.406300 -13.552300 -24.328900 0.000322 -0.000009 2.949130 5.361780 -28.896000 -22.291500 -0.000108 -0.000004 2.324290 5.245530 1.548670 -2.192480 -6.469440 -0.000000 -175.987000 -9.315420 -3.307590 39.081100 -0.000007 -0.000012 -0.063690 0.209033 16.945400 40.985400 -0.000006 -0.000013 -1.021050 4.429920 -62.057900 11.754300 -0.000000 0.000003 -0.000005 -0.000077 -16.580600 -2.192510 6.469440 -0.000001 -179.894000 12.583800 179.304000 -39.081100 -0.002282 -0.040193 -0.047086 0.200880 14.089400 -40.985400 0.000008 0.000006 1.861250 6.939680 -62.242700 -11.754300 -0.000006 -0.000006 -0.006042 -0.071216 -19.471500
0.000000 0.000000 0.000000 0.000000 0.000000 -0.000000 -2.040550 93.011100 -1.852160 89.051800 -1.877850 1.539870 15.735700 0.000005 -0.000001 95.679500 86.381000 -96.018100 8.984550 -0.406207 -0.000000 -0.561310 0.740738 -0.673155 16.377300 -0.000001 -0.000001 1.388970 -3.381220 4.638620 6.456720 -0.000001 -0.000000 6.760770 -1.976040 -3.239640 12.994200 -0.242716 4.980390 -90.288500 0.901258 -72.252100 5.348090 -0.000007 -0.000001 -69.645100 35.714300 -11.157300 24.328600 0.000019 0.000005 3.882650 9.940910 -21.461600 22.291600 -0.000001 0.000005 3.642860 5.480230 -5.757180 12.994500 -0.242716 -4.980390 87.508400 7.885320 -72.401800 -5.348130 -0.000001 -0.000004 -59.833400 33.139900 -15.272400 -24.328900 0.000322 -0.000009 1.715170 2.322040 -36.513900 -22.291500 -0.000108 -0.000004 0.266181 5.248160 1.481680 -2.192480 -6.469440 -0.000000 -175.987000 -9.437160 -3.382550 39.081100 -0.000007 -0.000012 -0.063807 0.209303 16.953900 40.985400 -0.000006 -0.000013 -0.994858 4.543720 -62.025000 11.754300 -0.000000 0.000003 -0.000005 -0.000066 -16.580100 -2.192510 6.469440 -0.000001 -179.870000 12.448600 179.211000 -39.081100 -0.002282 -0.040193 -0.047222 0.201228 14.102500 -40.985400 0.000008 0.000006 1.841100 6.847670 -62.197700 -11.754300 -0.000006 -0.000006 -0.006175 -0.072420 -19.520600
